<svg version="1.1" id="Layer_1" xmlns="http://www.w3.org/2000/svg" xmlns:xlink="http://www.w3.org/1999/xlink" x="0px" y="0px"
	 width="100%" viewBox="0 0 500 500" enable-background="new 0 0 500 500" xml:space="preserve">
<path fill="#A9B9D8" opacity="1.000000" stroke="none" 
	d="
M501.000000,340.000000 
	C501.000000,367.020905 501.000000,394.041779 500.555054,421.537720 
	C493.450378,420.588287 486.790680,419.163818 479.925903,417.479065 
	C472.805634,411.813141 465.890472,406.407471 458.843140,400.691895 
	C450.648834,392.809021 441.076904,389.362152 429.824951,389.709106 
	C428.724030,389.662231 427.847229,389.800293 426.641479,389.927216 
	C425.875153,389.947998 425.437775,389.979919 424.573975,389.985596 
	C414.038635,390.091339 405.957794,395.075012 399.003876,401.590027 
	C385.682617,414.070526 371.669739,424.392456 351.625610,421.934509 
	C342.073761,420.761169 334.818176,415.463409 327.096466,410.582642 
	C321.996124,406.148071 317.027313,402.030731 311.872498,397.631470 
	C306.652863,392.830261 300.510925,391.019531 293.575256,390.067627 
	C286.142944,390.607727 278.916992,390.314087 272.177795,391.984314 
	C262.233185,394.448914 255.259842,402.096771 247.825699,408.679199 
	C241.158264,414.582764 233.917557,419.392181 224.590515,421.188538 
	C211.988174,423.638611 200.719070,421.063599 189.913940,414.667175 
	C187.770462,412.468994 185.812607,410.553802 184.059082,408.389526 
	C186.160965,406.798279 188.015503,405.389893 189.962997,404.124603 
	C203.405579,395.390717 214.703400,384.444824 223.321991,370.934784 
	C225.670380,367.253601 228.147491,365.925690 232.524353,365.937592 
	C282.473206,366.073395 332.424988,366.210724 382.369476,365.705231 
	C389.930054,365.628723 398.042297,363.499115 404.892120,360.217010 
	C426.529938,349.849182 437.040649,331.770111 438.463562,307.991608 
	C441.538269,308.815369 444.636353,309.030914 446.824524,310.553772 
	C454.954346,316.211731 462.990051,322.047363 470.674042,328.292511 
	C479.592255,335.540802 489.108612,340.705292 501.000000,340.000000 
z"/>
<path fill="#A9B9D8" opacity="1.000000" stroke="none" 
	d="
M1.000000,390.000000 
	C1.000000,362.645782 1.000000,335.291534 1.454934,307.465698 
	C5.044495,307.200897 8.228558,307.126068 11.304692,307.666046 
	C21.449062,309.446808 28.828388,315.959076 36.099716,322.592834 
	C46.704670,332.267914 57.776234,340.891724 73.642059,339.314148 
	C87.054375,358.318695 105.234032,366.859955 128.080658,366.089874 
	C136.545120,365.804535 145.030624,366.184265 153.499863,365.981598 
	C157.311966,365.890320 159.115219,367.266663 157.697357,370.884247 
	C155.053589,377.629639 151.997787,384.213593 148.830231,390.624695 
	C138.434052,388.049622 128.945953,390.212891 120.771362,396.019104 
	C111.768158,402.413910 103.521797,409.874298 94.583961,416.957031 
	C80.791603,423.562134 67.046303,423.111908 52.934326,418.624634 
	C45.789902,412.715546 38.836857,407.087616 31.895935,401.444794 
	C22.892885,394.125549 13.176394,388.746124 1.000000,390.000000 
z"/>
<path fill="#A7F2E6" opacity="1.000000" stroke="none" 
	d="
M1.000000,142.000000 
	C1.000000,123.645775 1.000000,105.291542 1.365096,86.457932 
	C3.780071,84.192535 5.867937,82.448044 7.873603,80.613678 
	C19.888596,69.624878 32.261173,58.993610 43.790890,47.516201 
	C57.905209,33.465919 71.324417,18.716320 84.971619,4.200874 
	C85.664925,3.463460 85.672920,2.081734 86.000000,1.000000 
	C107.020897,1.000000 128.041794,1.000000 149.481354,1.340928 
	C149.599731,2.266448 149.418869,2.966397 148.981842,3.418943 
	C133.771912,19.168650 118.182236,34.503906 103.717072,51.032768 
	C96.387848,59.407639 86.373489,65.704338 78.889946,74.456528 
	C75.467598,78.459053 71.147545,81.692429 67.247131,85.288193 
	C63.102531,89.109062 58.773258,92.754517 54.876301,96.814148 
	C45.613415,106.463684 36.712654,116.463684 27.360329,126.023453 
	C21.875479,131.629974 15.805162,136.663712 9.550110,142.000702 
	C6.401345,142.030869 3.700672,142.015442 1.000000,142.000000 
z"/>
<path fill="#A0EDE8" opacity="1.000000" stroke="none" 
	d="
M9.998201,141.955093 
	C15.805162,136.663712 21.875479,131.629974 27.360329,126.023453 
	C36.712654,116.463684 45.613415,106.463684 54.876301,96.814148 
	C58.773258,92.754517 63.102531,89.109062 67.247131,85.288193 
	C71.147545,81.692429 75.467598,78.459053 78.889946,74.456528 
	C86.373489,65.704338 96.387848,59.407639 103.717072,51.032768 
	C118.182236,34.503906 133.771912,19.168650 148.981842,3.418943 
	C149.418869,2.966397 149.599731,2.266448 149.950012,1.340928 
	C171.020889,1.000000 192.041794,1.000000 213.481354,1.340928 
	C212.671432,3.216521 211.584915,4.895862 210.192368,6.263583 
	C195.508133,20.686123 180.683578,34.966957 166.090210,49.480404 
	C157.505997,58.017597 149.236313,66.872910 140.916885,75.671875 
	C139.976517,76.666458 139.632446,78.224831 138.552444,79.629570 
	C130.620270,79.816101 123.137833,79.683502 115.677185,80.025803 
	C105.823647,80.477882 96.932205,84.023773 88.930405,89.661476 
	C72.937195,100.929558 66.212975,117.081558 64.551826,136.014038 
	C62.116837,137.552048 59.800083,138.844452 58.005180,140.654358 
	C53.266479,145.432678 48.947762,150.642120 44.045559,155.235703 
	C42.351898,156.822739 39.431057,157.100159 36.770348,157.825653 
	C28.812374,150.471359 20.187046,144.896820 9.998201,141.955093 
z"/>
<path fill="#89E0EE" opacity="1.000000" stroke="none" 
	d="
M343.000000,0.999998 
	C366.020905,1.000000 389.041779,1.000000 412.480469,1.342248 
	C411.589203,3.128376 410.334991,4.626815 408.961426,6.006465 
	C403.700104,11.291102 397.631012,15.971702 393.264893,21.908468 
	C381.923950,37.329151 367.576599,49.618477 353.565216,62.336391 
	C348.001038,67.386894 341.368469,71.667259 338.550354,79.585976 
	C315.396210,79.618874 292.703674,79.559280 270.013245,79.150543 
	C270.687653,77.358063 271.022858,75.576042 272.082245,74.521492 
	C292.185303,54.509712 312.463287,34.672752 332.469238,14.564991 
	C336.476257,10.537576 339.514862,5.546654 343.000000,0.999998 
z"/>
<path fill="#97ABD0" opacity="1.000000" stroke="none" 
	d="
M73.450851,339.092743 
	C57.776234,340.891724 46.704670,332.267914 36.099716,322.592834 
	C28.828388,315.959076 21.449062,309.446808 11.304692,307.666046 
	C8.228558,307.126068 5.044495,307.200897 1.454934,306.997070 
	C1.000000,279.645782 1.000000,252.291550 1.450218,224.468964 
	C4.707804,224.206100 7.566090,224.143112 10.313613,224.664169 
	C21.451666,226.776443 29.795410,233.719467 37.644592,241.225861 
	C45.413807,248.655792 54.341225,253.688187 64.888489,256.445923 
	C64.964905,271.360229 65.296318,285.815979 64.907478,300.252319 
	C64.537315,313.995148 66.623978,327.019318 73.450851,339.092743 
z"/>
<path fill="#98E9EA" opacity="1.000000" stroke="none" 
	d="
M139.011871,79.521774 
	C139.632446,78.224831 139.976517,76.666458 140.916885,75.671875 
	C149.236313,66.872910 157.505997,58.017597 166.090210,49.480404 
	C180.683578,34.966957 195.508133,20.686123 210.192368,6.263583 
	C211.584915,4.895862 212.671432,3.216521 213.950012,1.340928 
	C236.687561,1.000000 259.375122,1.000000 282.480499,1.342253 
	C280.457611,4.097600 278.005280,6.499041 275.578064,8.925597 
	C253.696716,30.800663 231.802338,52.662777 209.984940,74.601425 
	C208.673874,75.919762 207.987457,77.859306 206.550720,79.614037 
	C183.731339,79.652779 161.371597,79.587273 139.011871,79.521774 
z"/>
<path fill="#8AA1CA" opacity="1.000000" stroke="none" 
	d="
M64.828728,255.978882 
	C54.341225,253.688187 45.413807,248.655792 37.644592,241.225861 
	C29.795410,233.719467 21.451666,226.776443 10.313613,224.664169 
	C7.566090,224.143112 4.707804,224.206100 1.450218,224.000305 
	C1.000000,196.979111 1.000000,169.958206 1.000000,142.468658 
	C3.700672,142.015442 6.401345,142.030869 9.550108,142.000702 
	C20.187046,144.896820 28.812374,150.471359 36.918163,158.123901 
	C45.428158,165.477646 53.237705,172.855591 64.855759,173.662918 
	C64.887169,201.402725 64.857948,228.690796 64.828728,255.978882 
z"/>
<path fill="#8AA1CA" opacity="1.000000" stroke="none" 
	d="
M501.000000,174.000000 
	C501.000000,201.687561 501.000000,229.375122 500.595123,257.464203 
	C496.614685,257.338684 492.963440,257.110229 489.478210,256.226776 
	C480.200134,253.874969 473.121246,247.903320 466.146790,241.709976 
	C457.881409,234.370239 449.658264,226.834091 438.026733,224.522980 
	C438.006439,197.006439 438.046509,169.954407 438.492584,142.913879 
	C444.248352,144.961853 449.598175,146.998306 455.128845,149.316696 
	C459.679047,153.361053 464.092621,157.073486 468.408569,160.896164 
	C477.724060,169.146988 488.060852,174.792419 501.000000,174.000000 
z"/>
<path fill="#97ABD0" opacity="1.000000" stroke="none" 
	d="
M438.087097,224.987488 
	C449.658264,226.834091 457.881409,234.370239 466.146790,241.709976 
	C473.121246,247.903320 480.200134,253.874969 489.478210,256.226776 
	C492.963440,257.110229 496.614685,257.338684 500.595123,257.932861 
	C501.000000,285.020905 501.000000,312.041779 501.000000,339.531342 
	C489.108612,340.705292 479.592255,335.540802 470.674042,328.292511 
	C462.990051,322.047363 454.954346,316.211731 446.824524,310.553772 
	C444.636353,309.030914 441.538269,308.815369 438.414551,307.526398 
	C438.009857,279.697845 438.048462,252.342667 438.087097,224.987488 
z"/>
<path fill="#81DBF0" opacity="1.000000" stroke="none" 
	d="
M339.011963,79.493484 
	C341.368469,71.667259 348.001038,67.386894 353.565216,62.336391 
	C367.576599,49.618477 381.923950,37.329151 393.264893,21.908468 
	C397.631012,15.971702 403.700104,11.291102 408.961426,6.006465 
	C410.334991,4.626815 411.589203,3.128376 412.949127,1.342248 
	C434.687561,1.000000 456.375122,1.000000 478.481262,1.340907 
	C477.904968,2.982783 477.095306,4.495866 475.886353,5.551784 
	C464.341980,15.634966 455.089874,27.978895 442.226837,36.954262 
	C434.258759,42.514130 427.253967,50.127720 421.784943,59.049904 
	C417.667633,65.766907 410.348816,70.487762 404.649017,76.287743 
	C402.788086,78.181343 401.537842,80.675117 399.644623,82.816895 
	C394.440979,81.784706 389.621948,80.151299 384.757202,80.001289 
	C369.518066,79.531410 354.261658,79.620781 339.011963,79.493484 
z"/>
<path fill="#91E4EC" opacity="1.000000" stroke="none" 
	d="
M207.010391,79.509789 
	C207.987457,77.859306 208.673874,75.919762 209.984940,74.601425 
	C231.802338,52.662777 253.696716,30.800663 275.578064,8.925597 
	C278.005280,6.499041 280.457611,4.097600 282.949158,1.342253 
	C302.687561,1.000000 322.375122,1.000000 342.531342,0.999998 
	C339.514862,5.546654 336.476257,10.537576 332.469238,14.564991 
	C312.463287,34.672752 292.185303,54.509712 272.082245,74.521492 
	C271.022858,75.576042 270.687653,77.358063 269.552490,79.248680 
	C248.396545,79.633896 227.703476,79.571838 207.010391,79.509789 
z"/>
<path fill="#7AD7F0" opacity="1.000000" stroke="none" 
	d="
M400.008331,82.894417 
	C401.537842,80.675117 402.788086,78.181343 404.649017,76.287743 
	C410.348816,70.487762 417.667633,65.766907 421.784943,59.049904 
	C427.253967,50.127720 434.258759,42.514130 442.226837,36.954262 
	C455.089874,27.978895 464.341980,15.634966 475.886353,5.551784 
	C477.095306,4.495866 477.904968,2.982783 478.949951,1.340907 
	C486.282013,1.000000 493.564056,1.000000 501.000000,1.000000 
	C501.000000,14.353897 501.000000,27.708290 500.659088,41.581387 
	C490.584564,50.860958 480.529694,59.295521 471.206451,68.473228 
	C461.623688,77.906387 452.866486,88.172554 443.520508,97.854568 
	C439.650055,101.864113 435.188171,105.302719 430.741394,108.781693 
	C423.260162,96.524384 413.332520,87.692802 400.008331,82.894417 
z"/>
<path fill="#44B0DD" opacity="1.000000" stroke="none" 
	d="
M458.975311,401.001831 
	C465.890472,406.407471 472.805634,411.813141 479.760254,417.799866 
	C469.877014,429.076721 460.121399,439.935303 449.942566,450.381470 
	C446.291412,454.128510 441.265015,456.512726 437.480865,460.157135 
	C426.815033,470.429016 416.382385,480.948639 406.053619,491.561157 
	C403.337311,494.352112 401.331879,497.834900 399.000000,501.000000 
	C384.312439,501.000000 369.624878,501.000000 354.517426,500.650146 
	C355.490936,498.274414 356.551514,495.876923 358.331635,494.282867 
	C370.045319,483.793365 379.846161,471.451080 392.799011,462.004059 
	C402.055481,455.252899 408.407623,444.619232 416.499390,436.141449 
	C423.611877,428.689667 431.184875,421.652679 438.852661,414.764404 
	C443.861450,410.264801 449.346649,406.282928 454.751617,402.247498 
	C455.854645,401.423920 457.551971,401.396332 458.975311,401.001831 
z"/>
<path fill="#71D0ED" opacity="1.000000" stroke="none" 
	d="
M183.854736,408.638641 
	C185.812607,410.553802 187.770462,412.468994 189.554169,414.727478 
	C188.758301,415.302307 187.992966,415.375031 187.536041,415.788544 
	C177.838333,424.565186 168.063385,433.261871 158.566132,442.251617 
	C155.232437,445.407166 152.799591,449.495453 149.601074,452.816559 
	C142.674805,460.008240 135.642838,467.108459 128.421722,474.002686 
	C121.948524,480.182831 115.014351,485.882477 108.589897,492.110107 
	C105.976494,494.643463 104.172379,498.011688 102.000015,501.000000 
	C85.979103,501.000000 69.958214,501.000000 53.520962,500.654724 
	C55.331032,498.434967 57.724342,496.724823 59.757317,494.659912 
	C75.158768,479.016907 90.490761,463.305511 105.841240,447.612366 
	C108.440628,444.954987 111.000870,442.258881 113.620583,439.621796 
	C119.069023,434.137177 124.545189,428.680115 130.446259,423.134460 
	C140.532196,421.468323 150.369537,420.584167 159.775085,418.078857 
	C168.052521,415.874023 175.846985,411.855927 183.854736,408.638641 
z"/>
<path fill="#4AB4DF" opacity="1.000000" stroke="none" 
	d="
M458.843140,400.691864 
	C457.551971,401.396332 455.854645,401.423920 454.751617,402.247498 
	C449.346649,406.282928 443.861450,410.264801 438.852661,414.764404 
	C431.184875,421.652679 423.611877,428.689667 416.499390,436.141449 
	C408.407623,444.619232 402.055481,455.252899 392.799011,462.004059 
	C379.846161,471.451080 370.045319,483.793365 358.331635,494.282867 
	C356.551514,495.876923 355.490936,498.274414 354.048767,500.650146 
	C341.979095,501.000000 329.958221,501.000000 317.518677,500.659058 
	C318.447510,498.664520 319.662384,496.878510 321.161926,495.376740 
	C354.534546,461.953247 387.948151,428.570587 421.305298,395.131592 
	C422.772919,393.660400 423.779175,391.728943 425.000366,390.011871 
	C425.437775,389.979919 425.875153,389.947998 426.847168,390.162354 
	C428.270874,390.237152 429.159943,390.065613 430.049042,389.894073 
	C441.076904,389.362152 450.648834,392.809021 458.843140,400.691864 
z"/>
<path fill="#76D4EF" opacity="1.000000" stroke="none" 
	d="
M130.009979,423.211731 
	C124.545189,428.680115 119.069023,434.137177 113.620583,439.621796 
	C111.000870,442.258881 108.440628,444.954987 105.841240,447.612366 
	C90.490761,463.305511 75.158768,479.016907 59.757317,494.659912 
	C57.724342,496.724823 55.331032,498.434967 53.052303,500.654724 
	C40.645771,501.000000 28.291544,501.000000 15.518675,500.659058 
	C15.979230,499.133026 16.730978,497.822418 17.756298,496.781189 
	C42.292229,471.864166 66.871376,446.989685 91.382370,422.048218 
	C92.828758,420.576447 93.769608,418.607849 94.945724,416.870483 
	C103.521797,409.874298 111.768158,402.413910 120.771362,396.019104 
	C128.945953,390.212891 138.434052,388.049622 148.681686,390.948303 
	C143.601761,399.368500 136.366318,404.847382 128.006699,408.903015 
	C124.267952,410.716858 122.233238,413.307709 122.841499,417.555817 
	C123.431549,421.676727 126.508217,422.734711 130.009979,423.211731 
z"/>
<path fill="#71D0ED" opacity="1.000000" stroke="none" 
	d="
M430.995270,109.000984 
	C435.188171,105.302719 439.650055,101.864113 443.520508,97.854568 
	C452.866486,88.172554 461.623688,77.906387 471.206451,68.473228 
	C480.529694,59.295521 490.584564,50.860958 500.659088,42.050045 
	C501.000000,62.020893 501.000000,82.041786 500.658813,102.581154 
	C496.906860,106.845024 493.638245,110.732635 490.059235,114.309647 
	C478.416595,125.945839 466.660431,137.468430 454.947968,149.034760 
	C449.598175,146.998306 444.248352,144.961853 438.433289,142.468781 
	C438.276733,130.452286 436.025421,119.433159 430.995270,109.000984 
z"/>
<path fill="#50B8E1" opacity="1.000000" stroke="none" 
	d="
M424.573975,389.985596 
	C423.779175,391.728943 422.772919,393.660400 421.305298,395.131592 
	C387.948151,428.570587 354.534546,461.953247 321.161926,495.376740 
	C319.662384,496.878510 318.447510,498.664520 317.049988,500.659058 
	C302.645782,501.000000 288.291534,501.000000 273.542480,500.665497 
	C275.085510,498.856720 277.224274,497.583221 278.929535,495.876556 
	C293.355804,481.437836 307.758301,466.974213 322.030334,452.383453 
	C325.126434,449.218231 327.343231,445.169281 330.537689,442.129089 
	C336.389374,436.559998 342.704620,431.480591 348.738770,426.098572 
	C350.019501,424.956299 350.924194,423.392365 352.002106,422.022675 
	C371.669739,424.392456 385.682617,414.070526 399.003876,401.590027 
	C405.957794,395.075012 414.038635,390.091339 424.573975,389.985596 
z"/>
<path fill="#AFF6E4" opacity="1.000000" stroke="none" 
	d="
M85.531342,1.000000 
	C85.672920,2.081734 85.664925,3.463460 84.971619,4.200874 
	C71.324417,18.716320 57.905209,33.465919 43.790890,47.516201 
	C32.261173,58.993610 19.888596,69.624878 7.873603,80.613678 
	C5.867937,82.448044 3.780071,84.192535 1.365096,85.989273 
	C1.000000,57.739769 1.000000,29.479536 1.000000,1.000000 
	C29.020514,1.000000 57.041599,1.000000 85.531342,1.000000 
z"/>
<path fill="#62C6E8" opacity="1.000000" stroke="none" 
	d="
M225.004517,421.170837 
	C233.917557,419.392181 241.158264,414.582764 247.825699,408.679199 
	C255.259842,402.096771 262.233185,394.448914 272.177795,391.984314 
	C278.916992,390.314087 286.142944,390.607727 293.520264,390.396729 
	C292.128845,392.724030 290.530487,394.859558 288.578644,396.598328 
	C281.673950,402.749390 274.267365,408.384888 267.754425,414.917145 
	C256.977417,425.726196 246.906326,437.236420 236.218231,448.137939 
	C230.899704,453.562653 224.659729,458.074127 219.209442,463.381622 
	C207.875412,474.418701 196.768570,485.689850 185.635056,496.930908 
	C184.521973,498.054779 183.867386,499.632751 183.000000,501.000000 
	C171.312439,501.000000 159.624878,501.000000 147.518677,500.659058 
	C148.212280,498.899902 149.179718,497.332825 150.459976,496.087280 
	C159.462616,487.329010 168.582611,478.691071 177.559891,469.907104 
	C185.047577,462.580627 192.457413,455.171631 199.780502,447.680695 
	C206.276657,441.035675 212.606613,434.228210 219.008789,427.491364 
	C221.009262,425.386322 223.006027,423.277740 225.004517,421.170837 
z"/>
<path fill="#69CBEA" opacity="1.000000" stroke="none" 
	d="
M224.590530,421.188568 
	C223.006027,423.277740 221.009262,425.386322 219.008789,427.491364 
	C212.606613,434.228210 206.276657,441.035675 199.780502,447.680695 
	C192.457413,455.171631 185.047577,462.580627 177.559891,469.907104 
	C168.582611,478.691071 159.462616,487.329010 150.459976,496.087280 
	C149.179718,497.332825 148.212280,498.899902 147.050018,500.659058 
	C132.312439,501.000000 117.624878,501.000000 102.468674,501.000000 
	C104.172379,498.011688 105.976494,494.643463 108.589897,492.110107 
	C115.014351,485.882477 121.948524,480.182831 128.421722,474.002686 
	C135.642838,467.108459 142.674805,460.008240 149.601074,452.816559 
	C152.799591,449.495453 155.232437,445.407166 158.566132,442.251617 
	C168.063385,433.261871 177.838333,424.565186 187.536041,415.788544 
	C187.992966,415.375031 188.758301,415.302307 189.739777,415.010529 
	C200.719070,421.063599 211.988174,423.638611 224.590530,421.188568 
z"/>
<path fill="#56BDE3" opacity="1.000000" stroke="none" 
	d="
M351.625610,421.934509 
	C350.924194,423.392365 350.019501,424.956299 348.738770,426.098572 
	C342.704620,431.480591 336.389374,436.559998 330.537689,442.129089 
	C327.343231,445.169281 325.126434,449.218231 322.030334,452.383453 
	C307.758301,466.974213 293.355804,481.437836 278.929535,495.876556 
	C277.224274,497.583221 275.085510,498.856720 273.073853,500.665497 
	C260.312439,501.000000 247.624878,501.000000 234.478485,500.636810 
	C234.936554,498.759155 235.557159,496.916687 236.815445,495.780212 
	C252.180695,481.902161 264.571198,464.924316 282.006622,453.125702 
	C286.263397,450.245087 288.401367,444.415649 292.119324,440.520203 
	C300.968781,431.248383 310.228607,422.369537 319.212921,413.224182 
	C321.555969,410.839142 324.032806,409.875092 327.227997,410.899841 
	C334.818176,415.463409 342.073761,420.761169 351.625610,421.934509 
z"/>
<path fill="#3DABDA" opacity="1.000000" stroke="none" 
	d="
M399.468658,501.000000 
	C401.331879,497.834900 403.337311,494.352112 406.053619,491.561157 
	C416.382385,480.948639 426.815033,470.429016 437.480865,460.157135 
	C441.265015,456.512726 446.291412,454.128510 449.942566,450.381470 
	C460.121399,439.935303 469.877014,429.076721 479.965363,418.060181 
	C486.790680,419.163818 493.450378,420.588287 500.555054,422.006409 
	C501.000000,429.354248 501.000000,436.708496 500.630737,444.541931 
	C498.030670,446.324554 495.413025,447.235535 493.629883,448.993103 
	C478.617798,463.790039 463.710663,478.694824 448.909027,493.702362 
	C446.885986,495.753510 445.617767,498.549103 444.000000,501.000000 
	C429.312439,501.000000 414.624878,501.000000 399.468658,501.000000 
z"/>
<path fill="#7BD8F0" opacity="1.000000" stroke="none" 
	d="
M94.583954,416.957001 
	C93.769608,418.607849 92.828758,420.576447 91.382370,422.048218 
	C66.871376,446.989685 42.292229,471.864166 17.756298,496.781189 
	C16.730978,497.822418 15.979230,499.133026 15.050017,500.659058 
	C10.380249,501.000000 5.760497,501.000000 1.000000,501.000000 
	C1.000000,491.312805 1.000000,481.625061 1.340917,471.418640 
	C1.992608,470.787262 2.399557,470.764221 2.600325,470.548920 
	C11.245746,461.277161 21.039810,453.278687 28.652174,442.771820 
	C35.241714,433.676697 44.854572,426.772003 53.131092,418.899139 
	C67.046303,423.111908 80.791603,423.562134 94.583954,416.957001 
z"/>
<path fill="#5EC3E6" opacity="1.000000" stroke="none" 
	d="
M183.468628,501.000000 
	C183.867386,499.632751 184.521973,498.054779 185.635056,496.930908 
	C196.768570,485.689850 207.875412,474.418701 219.209442,463.381622 
	C224.659729,458.074127 230.899704,453.562653 236.218231,448.137939 
	C246.906326,437.236420 256.977417,425.726196 267.754425,414.917145 
	C274.267365,408.384888 281.673950,402.749390 288.578644,396.598328 
	C290.530487,394.859558 292.128845,392.724030 293.944305,390.441315 
	C300.510925,391.019531 306.652863,392.830261 311.638031,397.907562 
	C305.536499,399.840210 301.853302,404.476105 297.920990,408.640900 
	C290.198792,416.819580 282.926514,425.438263 274.973785,433.379913 
	C266.667908,441.674286 257.476440,449.085175 249.218552,457.423401 
	C236.865417,469.896759 224.985626,482.839111 212.916489,495.593292 
	C211.242508,497.362274 209.637115,499.196136 208.000000,501.000000 
	C199.979095,501.000000 191.958191,501.000000 183.468628,501.000000 
z"/>
<path fill="#5BC1E5" opacity="1.000000" stroke="none" 
	d="
M208.468643,501.000000 
	C209.637115,499.196136 211.242508,497.362274 212.916489,495.593292 
	C224.985626,482.839111 236.865417,469.896759 249.218552,457.423401 
	C257.476440,449.085175 266.667908,441.674286 274.973785,433.379913 
	C282.926514,425.438263 290.198792,416.819580 297.920990,408.640900 
	C301.853302,404.476105 305.536499,399.840210 311.824036,398.189453 
	C317.027313,402.030731 321.996124,406.148071 327.096466,410.582642 
	C324.032806,409.875092 321.555969,410.839142 319.212921,413.224182 
	C310.228607,422.369537 300.968781,431.248383 292.119324,440.520203 
	C288.401367,444.415649 286.263397,450.245087 282.006622,453.125702 
	C264.571198,464.924316 252.180695,481.902161 236.815445,495.780212 
	C235.557159,496.916687 234.936554,498.759155 234.009827,500.636810 
	C225.645767,501.000000 217.291534,501.000000 208.468643,501.000000 
z"/>
<path fill="#81DBF0" opacity="1.000000" stroke="none" 
	d="
M52.934322,418.624634 
	C44.854572,426.772003 35.241714,433.676697 28.652174,442.771820 
	C21.039810,453.278687 11.245746,461.277161 2.600325,470.548920 
	C2.399557,470.764221 1.992608,470.787262 1.340917,470.949982 
	C1.000000,444.312439 1.000000,417.624878 1.000000,390.468658 
	C13.176394,388.746124 22.892885,394.125549 31.895935,401.444794 
	C38.836857,407.087616 45.789902,412.715546 52.934322,418.624634 
z"/>
<path fill="#69CBEA" opacity="1.000000" stroke="none" 
	d="
M455.128845,149.316681 
	C466.660431,137.468430 478.416595,125.945839 490.059235,114.309647 
	C493.638245,110.732635 496.906860,106.845024 500.658813,103.049812 
	C501.000000,126.354225 501.000000,149.708450 501.000000,173.531342 
	C488.060852,174.792419 477.724060,169.146988 468.408569,160.896164 
	C464.092621,157.073486 459.679047,153.361053 455.128845,149.316681 
z"/>
<path fill="#37A7D8" opacity="1.000000" stroke="none" 
	d="
M444.468689,501.000000 
	C445.617767,498.549103 446.885986,495.753510 448.909027,493.702362 
	C463.710663,478.694824 478.617798,463.790039 493.629883,448.993103 
	C495.413025,447.235535 498.030670,446.324554 500.630737,445.010559 
	C501.000000,463.594116 501.000000,482.188202 501.000000,501.000000 
	C482.312988,501.000000 463.625153,501.000000 444.468689,501.000000 
z"/>
<path fill="#FFFFFF" opacity="1.000000" stroke="none" 
	d="
M430.741394,108.781693 
	C436.025421,119.433159 438.276733,130.452286 438.027313,142.457260 
	C438.046509,169.954407 438.006439,197.006439 438.026733,224.522980 
	C438.048462,252.342667 438.009857,279.697845 438.020203,307.518250 
	C437.040649,331.770111 426.529938,349.849182 404.892120,360.217010 
	C398.042297,363.499115 389.930054,365.628723 382.369476,365.705231 
	C332.424988,366.210724 282.473206,366.073395 232.524353,365.937592 
	C228.147491,365.925690 225.670380,367.253601 223.321991,370.934784 
	C214.703400,384.444824 203.405579,395.390717 189.962997,404.124603 
	C188.015503,405.389893 186.160965,406.798279 184.059082,408.389526 
	C175.846985,411.855927 168.052521,415.874023 159.775085,418.078857 
	C150.369537,420.584167 140.532196,421.468323 130.446259,423.134460 
	C126.508217,422.734711 123.431549,421.676727 122.841499,417.555817 
	C122.233238,413.307709 124.267952,410.716858 128.006699,408.903015 
	C136.366318,404.847382 143.601761,399.368500 148.964905,391.188354 
	C151.997787,384.213593 155.053589,377.629639 157.697357,370.884247 
	C159.115219,367.266663 157.311966,365.890320 153.499863,365.981598 
	C145.030624,366.184265 136.545120,365.804535 128.080658,366.089874 
	C105.234032,366.859955 87.054375,358.318695 73.642059,339.314148 
	C66.623978,327.019318 64.537315,313.995148 64.907478,300.252319 
	C65.296318,285.815979 64.964905,271.360229 64.888489,256.445923 
	C64.857948,228.690796 64.887169,201.402725 64.923485,173.177979 
	C64.923035,160.162323 64.915482,148.083298 64.907928,136.004288 
	C66.212975,117.081558 72.937195,100.929558 88.930405,89.661476 
	C96.932205,84.023773 105.823647,80.477882 115.677185,80.025803 
	C123.137833,79.683502 130.620270,79.816101 138.552444,79.629578 
	C161.371597,79.587273 183.731339,79.652779 206.550720,79.614037 
	C227.703476,79.571838 248.396545,79.633896 269.550415,79.597809 
	C292.703674,79.559280 315.396210,79.618874 338.550354,79.585983 
	C354.261658,79.620781 369.518066,79.531410 384.757202,80.001289 
	C389.621948,80.151299 394.440979,81.784706 399.644623,82.816895 
	C413.332520,87.692802 423.260162,96.524384 430.741394,108.781693 
M136.995316,224.823380 
	C137.853088,236.654938 144.097488,244.936966 154.819138,249.135422 
	C165.241150,253.216568 175.383972,251.962906 184.633255,243.733170 
	C194.745468,234.213028 197.010910,220.448074 190.397964,208.706573 
	C183.862427,197.102524 170.539261,191.434723 158.033844,194.938568 
	C144.615845,198.698105 136.482788,209.961716 136.995316,224.823380 
M279.939728,224.093063 
	C280.182434,210.774841 273.383148,200.446030 261.270538,195.732727 
	C250.440186,191.518372 238.121552,194.651703 229.912399,203.708862 
	C216.446136,218.566208 223.253815,244.343338 242.493454,249.726349 
	C260.001068,255.709152 278.985352,243.111954 279.939728,224.093063 
M311.103699,233.702545 
	C315.287994,243.396957 322.421112,249.288300 333.917328,250.922073 
	C353.272827,252.360947 367.658020,238.629730 365.871246,219.757690 
	C364.733063,207.736435 357.897125,199.287674 346.423431,195.496933 
	C334.971710,191.713425 324.505646,194.310257 316.383698,203.361221 
	C308.663635,211.964294 306.598633,221.994293 311.103699,233.702545 
z"/>
<path fill="#50B8E1" opacity="1.000000" stroke="none" 
	d="
M429.824951,389.709106 
	C429.159943,390.065613 428.270874,390.237152 427.176086,390.173523 
	C427.847229,389.800293 428.724030,389.662231 429.824951,389.709106 
z"/>
<path fill="#9DEBE8" opacity="1.000000" stroke="none" 
	d="
M64.551826,136.014038 
	C64.915482,148.083298 64.923035,160.162323 64.862854,172.726257 
	C53.237705,172.855591 45.428158,165.477646 37.218586,158.274017 
	C39.431057,157.100159 42.351898,156.822739 44.045559,155.235703 
	C48.947762,150.642120 53.266479,145.432678 58.005180,140.654358 
	C59.800083,138.844452 62.116837,137.552048 64.551826,136.014038 
z"/>
<path fill="#8BA2CB" opacity="1.000000" stroke="none" 
	d="
M311.063843,232.990601 
	C306.598633,221.994293 308.663635,211.964294 316.383698,203.361221 
	C324.505646,194.310257 334.971710,191.713425 346.423431,195.496933 
	C357.897125,199.287674 364.733063,207.736435 365.871246,219.757690 
	C367.658020,238.629730 353.272827,252.360947 333.401184,250.496216 
	C327.468689,245.309570 322.124603,240.462189 316.589661,235.843506 
	C315.036011,234.547058 312.921234,233.923050 311.063843,232.990601 
z"/>
<path fill="#8BA2CB" opacity="1.000000" stroke="none" 
	d="
M241.931229,249.217941 
	C223.253815,244.343338 216.446136,218.566208 229.912399,203.708862 
	C238.121552,194.651703 250.440186,191.518372 261.270538,195.732727 
	C273.383148,200.446030 280.182434,210.774841 279.460754,224.539917 
	C276.388916,225.474258 273.588562,225.491531 271.238281,226.528687 
	C259.623260,231.654388 250.690277,240.344955 241.931229,249.217941 
z"/>
<path fill="#8BA2CB" opacity="1.000000" stroke="none" 
	d="
M137.055466,223.991913 
	C136.482788,209.961716 144.615845,198.698105 158.033844,194.938568 
	C170.539261,191.434723 183.862427,197.102524 190.397964,208.706573 
	C197.010910,220.448074 194.745468,234.213028 184.034790,243.712723 
	C177.669739,239.047516 172.088226,234.146301 166.092590,229.818909 
	C157.387863,223.536224 147.178375,223.749237 137.055466,223.991913 
z"/>
<path fill="#97ABD0" opacity="1.000000" stroke="none" 
	d="
M137.025391,224.407654 
	C147.178375,223.749237 157.387863,223.536224 166.092590,229.818909 
	C172.088226,234.146301 177.669739,239.047516 183.730286,243.854599 
	C175.383972,251.962906 165.241150,253.216568 154.819138,249.135422 
	C144.097488,244.936966 137.853088,236.654938 137.025391,224.407654 
z"/>
<path fill="#97ABD0" opacity="1.000000" stroke="none" 
	d="
M242.212341,249.472137 
	C250.690277,240.344955 259.623260,231.654388 271.238281,226.528687 
	C273.588562,225.491531 276.388916,225.474258 279.389069,224.980209 
	C278.985352,243.111954 260.001068,255.709152 242.212341,249.472137 
z"/>
<path fill="#97ABD0" opacity="1.000000" stroke="none" 
	d="
M311.083771,233.346573 
	C312.921234,233.923050 315.036011,234.547058 316.589661,235.843506 
	C322.124603,240.462189 327.468689,245.309570 332.955872,250.385773 
	C322.421112,249.288300 315.287994,243.396957 311.083771,233.346573 
z"/>
</svg>